#N canvas 651 277 489 440 12;
#X obj 247 270 noise~;
#N canvas 234 325 556 619 fft-analysis 1;
#X obj 32 186 *~;
#X obj 32 105 inlet~;
#X obj 32 248 rfft~;
#X obj 50 160 tabreceive~ \$0-hann;
#X obj 32 365 *~;
#X obj 71 365 *~;
#X obj 89 205 tabreceive~ \$0-gain;
#X obj 32 518 *~;
#X obj 50 492 tabreceive~ \$0-hann;
#X obj 32 421 rifft~;
#X obj 32 579 outlet~;
#X msg 439 204 0;
#X obj 344 253 osc~, f 14;
#X obj 344 205 samplerate~;
#X obj 344 276 *~ -0.5;
#X obj 344 299 +~ 0.5;
#X obj 321 324 tabwrite~ \$0-hann;
#X obj 321 142 bng 19 250 50 0 empty empty empty 0 -6 0 8 #dfdfdf #000000 #000000;
#X obj 321 121 loadbang;
#X obj 277 361 array size \$0-gain;
#X obj 277 332 / 2;
#X obj 321 166 t b b b;
#X msg 244 429 const 0;
#X obj 245 271 t b b;
#X obj 244 453 s \$0-gain;
#X obj 344 229 / \$2;
#X obj 277 308 f \$2;
#X obj 30 33 block~ \$2 4;
#X obj 89 310 /~ 1;
#X connect 0 0 2 0;
#X connect 1 0 0 0;
#X connect 2 0 4 0;
#X connect 2 1 5 0;
#X connect 3 0 0 1;
#X connect 4 0 9 0;
#X connect 5 0 9 1;
#X connect 6 0 28 0;
#X connect 7 0 10 0;
#X connect 8 0 7 1;
#X connect 9 0 7 0;
#X connect 11 0 12 1;
#X connect 12 0 14 0;
#X connect 13 0 25 0;
#X connect 14 0 15 0;
#X connect 15 0 16 0;
#X connect 17 0 21 0;
#X connect 17 0 23 0;
#X connect 18 0 17 0;
#X connect 20 0 19 0;
#X connect 21 0 16 0;
#X connect 21 1 13 0;
#X connect 21 2 11 0;
#X connect 22 0 24 0;
#X connect 23 0 22 0;
#X connect 23 1 26 0;
#X connect 25 0 12 0;
#X connect 26 0 20 0;
#X connect 28 0 4 1;
#X connect 28 0 5 1;
#X restore 247 295 pd fft-analysis;
#X obj 53 389 array set \$0-gain, f 25;
#X obj 247 409 outlet~;
#X obj 13 205 list split 5;
#X obj 53 231 unpack;
#X obj 53 255 swap, f 13;
#X obj 53 359 clip 0 1;
#X obj 276 62 array define \$0-gain;
#X obj 53 280 + 120;
#X obj 53 308 * 0.833333;
#X obj 53 332 dbtorms;
#X obj 13 20 inlet;
#X obj 276 31 array define \$0-hann \$2;
#X obj 13 138 route \$1;
#X obj 13 174 t l b, f 25;
#X msg 185 200 const 0;
#X obj 185 224 s \$0-gain;
#X obj 13 79 route mouseover;
#X obj 13 108 spigot;
#X obj 13 51 route list;
#X obj 265 349 line~;
#X obj 247 379 *~;
#X msg 270 323 0 20;
#X msg 310 323 1 20;
#X obj 272 182 sel 0;
#X connect 0 0 1 0;
#X connect 1 0 22 0;
#X connect 4 1 5 0;
#X connect 5 0 6 0;
#X connect 5 1 6 1;
#X connect 6 0 9 0;
#X connect 6 1 2 1;
#X connect 7 0 2 0;
#X connect 9 0 10 0;
#X connect 10 0 11 0;
#X connect 11 0 7 0;
#X connect 12 0 20 0;
#X connect 14 0 15 0;
#X connect 14 0 24 0;
#X connect 15 0 4 0;
#X connect 15 1 16 0;
#X connect 16 0 17 0;
#X connect 18 0 19 1;
#X connect 18 0 25 0;
#X connect 18 1 19 0;
#X connect 19 0 14 0;
#X connect 20 0 18 0;
#X connect 21 0 22 1;
#X connect 22 0 3 0;
#X connect 23 0 21 0;
#X connect 24 0 21 0;
#X connect 25 0 23 0;
