#N canvas 389 445 218 407 12;
#X obj 19 348 outlet~;
#X obj 19 9 inlet;
#X obj 19 167 route \$1;
#X obj 19 68 route mouseover;
#X obj 19 127 spigot;
#X obj 19 40 route list;
#X obj 37 288 line~;
#X obj 19 318 *~;
#X obj 19 191 list split 5;
#X obj 19 238 osc~;
#X obj 19 92 sel 0;
#X msg 37 264 0 20;
#X msg 77 264 1 20;
#X obj 59 215 unpack f;
#X connect 1 0 5 0;
#X connect 2 0 8 0;
#X connect 2 0 12 0;
#X connect 3 0 4 1;
#X connect 3 0 10 0;
#X connect 3 1 4 0;
#X connect 4 0 2 0;
#X connect 5 0 3 0;
#X connect 6 0 7 1;
#X connect 7 0 0 0;
#X connect 8 1 13 0;
#X connect 9 0 7 0;
#X connect 10 0 11 0;
#X connect 11 0 6 0;
#X connect 12 0 6 0;
#X connect 13 0 9 0;
