#N canvas 756 293 379 622 12;
#X obj 19 568 outlet~;
#X obj 19 9 inlet;
#X obj 19 127 route \$1;
#X obj 19 68 route mouseover;
#X obj 19 97 spigot;
#X obj 19 40 route list;
#X obj 37 508 line~;
#X obj 19 538 *~;
#X obj 19 151 unpack f f f f f, f 19;
#X obj 51 250 bang;
#X obj 51 421 vline~;
#X obj 19 448 *~, f 5;
#X obj 121 110 sel 0;
#X obj 51 226 change -1;
#X obj 51 329 spigot;
#X msg 119 194 set -1;
#X obj 51 274 t b b;
#X msg 90 304 1;
#X msg 148 244 0;
#X obj 19 359 noise~;
#X msg 37 481 0 20;
#X msg 77 481 1 20;
#X msg 51 394 1 20 \, 0 20 20;
#X connect 1 0 5 0;
#X connect 2 0 8 0;
#X connect 2 0 21 0;
#X connect 3 0 4 1;
#X connect 3 0 12 0;
#X connect 3 1 4 0;
#X connect 4 0 2 0;
#X connect 5 0 3 0;
#X connect 6 0 7 1;
#X connect 7 0 0 0;
#X connect 8 1 13 0;
#X connect 9 0 16 0;
#X connect 10 0 11 1;
#X connect 11 0 7 0;
#X connect 12 0 15 0;
#X connect 12 0 18 0;
#X connect 12 0 20 0;
#X connect 13 0 9 0;
#X connect 14 0 22 0;
#X connect 15 0 13 0;
#X connect 16 0 17 0;
#X connect 16 1 14 0;
#X connect 17 0 14 1;
#X connect 18 0 14 1;
#X connect 19 0 11 0;
#X connect 20 0 6 0;
#X connect 21 0 6 0;
#X connect 22 0 10 0;
