#N canvas 1124 49 349 197 12;
#N canvas 643 118 828 689 partiels-mgmt 0;
#X obj 353 454 symbol;
#X obj 353 509 symbol \\\$0;
#X obj 393 317 list;
#N canvas 1049 237 359 254 container 0;
#X coords 0 -1 1 1 330 146 2 0 0;
#X restore 10 35 pd container;
#X obj 353 94 oscparse;
#X obj 581 207 s \$0-osc;
#X msg 385 242 \; pd-container clear;
#X obj 353 183 list;
#X obj 353 121 list trim;
#X obj 581 179 list;
#X msg 353 44 listen \$1;
#X obj 481 18 loadbang;
#X obj 353 69 netreceive -u -b;
#X msg 481 42 9001;
#X obj 455 507 f;
#X obj 353 482 t b s b, f 15;
#X obj 485 507 + 28;
#X obj 353 208 t l b;
#X obj 534 465 loadbang;
#X obj 353 533 pack s s f f, f 23;
#X obj 534 489 f \$0;
#X obj 353 16 r \$0-udp-port;
#X obj 481 66 s \$0-udp-port-i;
#X obj 11 11 cnv 19 328 24 empty empty Partiels\ Matrix\ Manager 6 12 0 14 #e0e0e0 #404040 0;
#X floatatom 300 14 5 0 0 0 Port: \$0-udp-port-i \$0-udp-port 0;
#X msg 473 480 8;
#X msg 353 558 \; pd-container obj 4 \$3 partiels-plot-matrix-ebd \$1 \$2 \; \$4-\$2 loadbang;
#X obj 353 148 route tracks, f 33;
#X obj 353 289 list split 2;
#X obj 353 431 spigot, f 10;
#X obj 353 344 unpack s s;
#X obj 420 369 sel vector;
#X msg 420 393 1;
#X msg 487 393 0;
#X connect 0 0 15 0;
#X connect 1 0 19 0;
#X connect 2 0 28 0;
#X connect 4 0 8 0;
#X connect 7 0 17 0;
#X connect 8 0 27 0;
#X connect 9 0 5 0;
#X connect 10 0 12 0;
#X connect 11 0 13 0;
#X connect 12 0 4 0;
#X connect 13 0 22 0;
#X connect 14 0 16 0;
#X connect 14 0 19 2;
#X connect 15 0 1 0;
#X connect 15 1 19 1;
#X connect 15 2 14 0;
#X connect 16 0 14 1;
#X connect 17 0 28 0;
#X connect 17 1 6 0;
#X connect 17 1 25 0;
#X connect 18 0 20 0;
#X connect 19 0 26 0;
#X connect 20 0 19 3;
#X connect 21 0 10 0;
#X connect 25 0 14 1;
#X connect 27 0 7 0;
#X connect 27 1 9 0;
#X connect 28 0 30 0;
#X connect 28 1 2 0;
#X connect 29 0 0 0;
#X connect 30 0 29 0;
#X connect 30 1 31 0;
#X connect 31 0 32 0;
#X connect 31 1 33 0;
#X connect 32 0 29 1;
#X connect 33 0 29 1;
#X coords 0 -1 1 1 330 171 2 10 10;
#X restore 6 9 pd partiels-mgmt;
