#N canvas 66 97 725 629 12;
#X obj 55 157 oscparse;
#X obj 55 132 netreceive -u -b 9001;
#X msg 239 173 id 9c0e3843c2ba4b4eb0e3c3812215b024;
#N canvas 0 22 450 278 (subpatch) 0;
#X array \$0-spectrum 513 float 0;
#X coords 0 0 513 -120 617 193 2 0 0;
#X restore 55 348 graph;
#X text 236 144 Change the id of the track to follow;
#X text 303 291 1st argument: The id of the track to follow 2nd argument: The name of the array to fill, f 44;
#X obj 8 37 cnv 1 700 1 empty empty empty 8 12 0 13 #000000 #000000 0;
#X text 15 602 see also:;
#X obj 8 587 cnv 1 700 1 empty empty empty 8 12 0 13 #000000 #000000 0;
#X text 236 204 Change the array to fill;
#X text 62 184 Receive the OSC data as a list, f 17;
#X obj 12 10 partiels-plot-matrix;
#X obj 55 282 partiels-plot-matrix 03cb5fd936574caebd686efde3a70f32 \$0-spectrum, f 33;
#X text 165 10 - plots the matrix data received from the Partiels application, f 62;
#X text 13 42 The [partiels-plot-matrix] abstraction stores and plots the OSC data received from a matrix track of the Partiels application into an array. Array size and value scales are automatically updated according to track zooms in the Partiels application. To run this patch \, you should open the Partiels document Voice.ptldoc and enable the OSC., f 96;
#X msg 239 230 send john;
#X obj 87 602 partiels-plot-point;
#X text 8 562 Partiels by Pierre Guillot at IRCAM IMR Department.;
#X connect 0 0 12 0;
#X connect 1 0 0 0;
#X connect 2 0 12 0;
#X connect 15 0 12 0;
