#N canvas 726 168 722 633 12;
#X obj 55 157 oscparse;
#X obj 55 132 netreceive -u -b 9001;
#X msg 239 173 id 9c0e3843c2ba4b4eb0e3c3812215b024;
#X text 236 144 Change the id of the track to follow;
#X obj 8 37 cnv 1 700 1 empty empty empty 8 12 0 13 #000000 #000000 0;
#X text 15 602 see also:;
#X obj 8 587 cnv 1 700 1 empty empty empty 8 12 0 13 #000000 #000000 0;
#X text 62 184 Receive the OSC data as a list, f 17;
#X obj 12 10 partiels-plot-point;
#X text 155 10 - plots the point data received from the Partiels application, f 62;
#X obj 54 344 hsl 612 193 0 2188.51 0 0 empty \$0-frequency empty -2 -10 0 12 #fcfcfc #000000 #000000 0 1;
#X obj 55 282 partiels-plot-point e0996805fc874a6d98e36e7cfa86ac1c \$0-frequency, f 32;
#X text 303 291 1st argument: The id of the track to follow 2nd argument: The symbol of the slider, f 44;
#X text 13 42 The [partiels-plot-point] abstraction stores and plots the OSC data received from a point track of the Partiels application with a slider. Value scale and thresholds are automatically updated according to track zooms and properties in the Partiels application. To run this patch \, you should open the Partiels document Voice.ptldoc and enable the OSC., f 96;
#X obj 87 602 partiels-plot-matrix;
#X text 8 564 Partiels by Pierre Guillot at IRCAM IMR Department.;
#X connect 0 0 11 0;
#X connect 1 0 0 0;
#X connect 2 0 11 0;
