#N canvas 453 406 514 208 12;
#X obj 11 9 r \$1-osc;
#X obj 91 34 partiels-plot-matrix \$2 \$0-spectrum;
#X obj 75 9 namecanvas \$1-\$2;
#X obj 14 144 bng 18 250 50 0 \$0-open-s \$0-open-i empty 0 -10 0 12 #fcfcfc #000000 #000000;
#X obj 378 15 loadbang;
#X obj 359 114 r \$0-open-s;
#X obj 378 82 s \$0-spectrum;
#X msg 378 55 edit 0;
#X msg 439 55 width 2;
#N canvas 755 581 655 235 \$0-spectrum 0;
#N canvas 0 22 450 278 (subpatch) 0;
#X array \$0-spectrum 513 float 0;
#X coords 0 0 513 -71.8135 619 198 2 0 0;
#X restore 12 24 graph;
#X obj 12 3 cnv 19 292 18 empty \$0-name-r empty 0 10 0 12 #ffffff #404040 0;
#X coords 0 0 1 1 85 60 0;
#X restore 92 61 pd \$0-spectrum;
#X msg 359 138 vis 1;
#X obj 359 162 s pd-\$0-spectrum;
#X obj 11 58 route \$2;
#X obj 11 34 route list;
#X obj 11 82 route name;
#X obj 11 106 symbol;
#X obj 36 144 cnv 19 292 18 empty \$0-name-r empty 0 10 0 12 #ffffff #404040 0;
#X msg 62 106 label \$1;
#X obj 133 106 s \$0-name-r;
#X connect 0 0 1 0;
#X connect 0 0 13 0;
#X connect 4 0 7 0;
#X connect 4 0 8 0;
#X connect 5 0 10 0;
#X connect 7 0 6 0;
#X connect 8 0 6 0;
#X connect 10 0 11 0;
#X connect 12 0 14 0;
#X connect 13 0 12 0;
#X connect 14 0 15 0;
#X connect 15 0 17 0;
#X connect 17 0 18 0;
#X coords 0 -1 1 1 322 26 2 10 140;
