#N canvas 130 138 733 567 12;
#X obj 171 212 list split 1;
#X obj 64 37 inlet;
#X obj 64 113 route \$1, f 10;
#X obj 131 187 list split 5;
#X obj 130 88 symbol;
#N canvas 298 604 450 300 iter 0;
#X obj 9 121 until;
#X obj 9 224 list store, f 16;
#X obj 9 146 f, f 7;
#X obj 67 147 + 1;
#X msg 55 121 0, f 2;
#X msg 9 197 get \$1 1;
#X obj 9 20 inlet;
#X obj 9 254 pack f f;
#X obj 9 278 outlet;
#X obj 9 170 t f f, f 8;
#X obj 9 44 t b l, f 16;
#X obj 9 88 t b b, f 7;
#X obj 59 20 inlet;
#X connect 0 0 2 0;
#X connect 1 0 7 0;
#X connect 1 1 0 1;
#X connect 2 0 3 0;
#X connect 2 0 9 0;
#X connect 3 0 2 1;
#X connect 4 0 2 1;
#X connect 5 0 1 0;
#X connect 6 0 10 0;
#X connect 7 0 8 0;
#X connect 9 0 5 0;
#X connect 9 1 7 1;
#X connect 10 0 11 0;
#X connect 10 1 1 1;
#X connect 11 0 0 0;
#X connect 11 1 4 0;
#X connect 12 0 11 0;
#X restore 211 271 pd iter;
#N canvas 323 38 745 866 scale 0;
#X obj 40 13 inlet;
#X obj 79 542 swap, f 10;
#X obj 79 566 -, f 10;
#X obj 369 423 unpack f f f f, f 29;
#X obj 79 594 /, f 12;
#X obj 40 877 outlet;
#X obj 40 623 / 1, f 6;
#X obj 40 426 - 0;
#X obj 40 681 + 0;
#X obj 369 447 s \$0-scale-min;
#X obj 435 471 s \$0-scale-max;
#X obj 160 541 swap, f 10;
#X obj 160 565 -, f 10;
#X obj 79 441 r \$0-scale-min;
#X obj 146 464 r \$0-scale-max;
#X obj 569 471 s \$0-range-max;
#X obj 227 511 r \$0-range-max;
#X obj 502 447 s \$0-range-min;
#X obj 58 655 r \$0-range-min;
#X obj 58 402 r \$0-range-min;
#X obj 160 487 r \$0-range-min;
#X obj 40 728 moses 1e+21;
#X obj 114 752 bang;
#X obj 114 813 f;
#X obj 40 848 f;
#X obj 114 698 r \$0-range-max;
#X obj 132 785 r \$0-range-max;
#X obj 40 377 f;
#X obj 40 281 moses -1e+21;
#X obj 40 322 bang;
#X obj 121 253 r \$0-scale-min;
#X obj 58 348 r \$0-range-min;
#X obj 337 344 t b l;
#X obj 337 319 r \$0-scale;
#X obj 337 368 s \$0-trigger;
#X obj 450 212 swap, f 6;
#X obj 450 236 -, f 6;
#X obj 450 145 unpack;
#X obj 107 222 &&;
#X obj 107 173 >= 0;
#X obj 125 195 < 1e+21;
#X obj 237 108 -;
#X obj 237 132 outlet;
#X obj 450 263 s \$0-array-size;
#X obj 418 56 r \$0-zoom;
#X obj 418 86 t b l;
#X obj 418 110 s \$0-trigger;
#X obj 40 37 unpack f f;
#X obj 107 68 t f f, f 19;
#X obj 107 92 t f f;
#X obj 465 182 s \$0-zoom-min;
#X obj 255 78 r \$0-zoom-min;
#X obj 564 182 s \$0-zoom-max;
#X obj 171 166 r \$0-zoom-max;
#X obj 132 142 r \$0-zoom-min;
#X obj 40 252 spigot 1, f 10;
#X connect 0 0 47 0;
#X connect 1 0 2 0;
#X connect 1 1 2 1;
#X connect 2 0 4 0;
#X connect 3 0 9 0;
#X connect 3 1 10 0;
#X connect 3 2 17 0;
#X connect 3 3 15 0;
#X connect 4 0 6 1;
#X connect 6 0 8 0;
#X connect 7 0 6 0;
#X connect 8 0 21 0;
#X connect 11 0 12 0;
#X connect 11 1 12 1;
#X connect 12 0 4 1;
#X connect 13 0 1 0;
#X connect 14 0 1 1;
#X connect 16 0 11 1;
#X connect 18 0 8 1;
#X connect 19 0 7 1;
#X connect 20 0 11 0;
#X connect 21 0 24 0;
#X connect 21 1 22 0;
#X connect 22 0 23 0;
#X connect 23 0 24 0;
#X connect 24 0 5 0;
#X connect 25 0 21 1;
#X connect 26 0 23 1;
#X connect 27 0 7 0;
#X connect 28 0 29 0;
#X connect 28 1 7 0;
#X connect 29 0 27 0;
#X connect 30 0 28 1;
#X connect 31 0 27 1;
#X connect 32 0 34 0;
#X connect 32 1 3 0;
#X connect 33 0 32 0;
#X connect 35 0 36 0;
#X connect 35 1 36 1;
#X connect 36 0 43 0;
#X connect 37 0 35 0;
#X connect 37 0 50 0;
#X connect 37 1 35 1;
#X connect 37 1 52 0;
#X connect 38 0 55 1;
#X connect 39 0 38 0;
#X connect 40 0 38 1;
#X connect 41 0 42 0;
#X connect 44 0 45 0;
#X connect 45 0 46 0;
#X connect 45 1 37 0;
#X connect 47 0 55 0;
#X connect 47 1 48 0;
#X connect 48 0 49 0;
#X connect 48 1 41 0;
#X connect 49 0 39 0;
#X connect 49 1 40 0;
#X connect 51 0 41 1;
#X connect 53 0 40 1;
#X connect 54 0 39 1;
#X connect 55 0 28 0;
#X restore 211 306 pd scale;
#X f 12;
#X obj 197 138 s \$0-array;
#X obj 375 307 r \$0-array;
#X obj 64 339 s \$0-zoom;
#X obj 257 242 r \$0-trigger;
#X obj 561 463 r \$0-array;
#X obj 494 439 r \$0-array-size;
#X msg 493 336 bounds \$1 \$2 \$3 \$4;
#X obj 492 386 s;
#X obj 510 359 r \$0-array;
#X obj 493 312 pack 0 f f f, f 14;
#X obj 493 243 t b b f;
#X obj 623 256 r \$0-array;
#X obj 453 136 r \$0-scale;
#X obj 493 189 unpack f f;
#X obj 494 493 array size;
#X obj 211 337 array set, f 24;
#X obj 210 86 loadbang;
#X obj 210 110 symbol \$2;
#X obj 556 285 array size;
#X obj 493 213 swap, f 10;
#X obj 453 160 list split 2;
#X obj 64 146 route zoom;
#X obj 64 241 route bin value;
#X msg 115 268 \$3 \$4 \$1 \$2;
#X obj 115 292 s \$0-scale;
#X msg 64 313 \$3 \$4;
#X obj 64 61 route list id send, f 29;
#X connect 0 1 5 0;
#X connect 1 0 33 0;
#X connect 2 0 28 0;
#X connect 3 1 0 0;
#X connect 4 0 2 1;
#X connect 5 0 6 0;
#X connect 6 0 22 0;
#X connect 6 1 22 1;
#X connect 8 0 22 2;
#X connect 10 0 5 1;
#X connect 11 0 21 1;
#X connect 12 0 21 0;
#X connect 13 0 14 0;
#X connect 15 0 14 1;
#X connect 16 0 13 0;
#X connect 17 0 16 0;
#X connect 17 1 25 0;
#X connect 17 2 16 1;
#X connect 18 0 25 1;
#X connect 19 0 27 0;
#X connect 20 0 26 0;
#X connect 20 1 26 1;
#X connect 23 0 24 0;
#X connect 24 0 7 0;
#X connect 25 0 16 2;
#X connect 26 0 17 0;
#X connect 26 1 16 3;
#X connect 27 1 20 0;
#X connect 28 0 29 0;
#X connect 28 1 3 0;
#X connect 29 0 32 0;
#X connect 29 1 30 0;
#X connect 30 0 31 0;
#X connect 32 0 9 0;
#X connect 33 0 2 0;
#X connect 33 1 4 0;
#X connect 33 2 7 0;
