#N canvas 740 150 772 652 12;
#X obj 55 47 oscparse;
#X obj 55 22 netreceive -u -b 9001;
#X msg 129 174 id 9c0e3843c2ba4b4eb0e3c3812215b024;
#X msg 129 204 id 03cb5fd936574caebd686efde3a70f32;
#X obj 58 328 hsl 445 190 0 22050 0 0 empty \$0-frequency empty -2 -10 0 12 #fcfcfc #000000 #000000 0 1;
#N canvas 0 22 450 278 (subpatch) 0;
#X array \$0-spectrum 513 float 0;
#X coords 0 0 512 -120 450 190 2 0 0;
#X restore 55 328 graph;
#X msg 418 203 score \$1;
#X obj 417 158 nbx 5 17 0 1 0 0 empty empty empty 0 -10 0 12 #fcfcfc #000000 #000000 0 256;
#X obj 292 62 pack f f -120 0;
#X obj 292 110 list trim;
#X obj 295 33 nbx 5 17 -120 0 0 0 empty empty empty 0 -10 0 12 #fcfcfc #000000 #000000 0 256;
#X obj 292 86 list prepend ranges;
#X obj 373 11 nbx 5 17 -120 0 0 0 empty empty empty 0 -10 0 12 #fcfcfc #000000 #000000 0 256;
#X obj 373 33 t b f;
#X obj 239 22 bng 19 250 50 0 empty empty empty 0 -10 0 12 #fcfcfc #000000 #000000;
#X obj 55 242 partiels-plot-matrix 03cb5fd936574caebd686efde3a70f32 \$0-spectrum, f 33;
#X obj 294 243 partiels-plot-point e0996805fc874a6d98e36e7cfa86ac1c \$0-frequency, f 32;
#X connect 0 0 15 0;
#X connect 0 0 16 0;
#X connect 1 0 0 0;
#X connect 2 0 15 0;
#X connect 3 0 15 0;
#X connect 6 0 16 0;
#X connect 7 0 6 0;
#X connect 8 0 11 0;
#X connect 9 0 15 0;
#X connect 10 0 8 0;
#X connect 11 0 9 0;
#X connect 12 0 13 0;
#X connect 13 0 8 0;
#X connect 13 1 8 1;
#X connect 14 0 10 0;
