#N canvas 311 337 454 443 12;
#X obj 64 37 inlet;
#X obj 64 113 route \$1, f 16;
#X obj 131 167 list split 5;
#X obj 172 90 symbol;
#X obj 171 325 s, f 6;
#X obj 210 273 loadbang;
#X obj 210 297 symbol \$2;
#X obj 171 195 unpack f f;
#X obj 171 239 spigot, f 10;
#X obj 238 218 > -1e+21;
#X obj 64 61 route list id send score, f 47;
#X obj 64 137 route zoom;
#X msg 64 231 range \$3 \$4;
#X connect 0 0 10 0;
#X connect 1 0 11 0;
#X connect 2 1 7 0;
#X connect 3 0 1 1;
#X connect 5 0 6 0;
#X connect 6 0 4 1;
#X connect 7 0 8 0;
#X connect 7 1 9 0;
#X connect 8 0 4 0;
#X connect 9 0 8 1;
#X connect 10 0 1 0;
#X connect 10 1 3 0;
#X connect 10 2 6 1;
#X connect 10 3 9 1;
#X connect 11 0 12 0;
#X connect 11 1 2 0;
#X connect 12 0 4 0;
