#N canvas 338 210 766 622 12;
#X obj 171 212 list split 1;
#X obj 64 37 inlet;
#X obj 64 113 route \$1, f 10;
#X obj 131 187 list split 5;
#X obj 130 88 symbol;
#N canvas 298 604 450 300 iter 0;
#X obj 9 121 until;
#X obj 9 224 list store, f 16;
#X obj 9 146 f, f 7;
#X obj 67 147 + 1;
#X msg 55 121 0, f 2;
#X msg 9 197 get \$1 1;
#X obj 9 20 inlet;
#X obj 9 254 pack f f;
#X obj 9 278 outlet;
#X obj 9 170 t f f, f 8;
#X obj 9 44 t b l, f 16;
#X obj 9 88 t b b, f 7;
#X obj 59 20 inlet;
#X connect 0 0 2 0;
#X connect 1 0 7 0;
#X connect 1 1 0 1;
#X connect 2 0 3 0;
#X connect 2 0 9 0;
#X connect 3 0 2 1;
#X connect 4 0 2 1;
#X connect 5 0 1 0;
#X connect 6 0 10 0;
#X connect 7 0 8 0;
#X connect 9 0 5 0;
#X connect 9 1 7 1;
#X connect 10 0 11 0;
#X connect 10 1 1 1;
#X connect 11 0 0 0;
#X connect 11 1 4 0;
#X connect 12 0 11 0;
#X restore 211 271 pd iter;
#N canvas 857 82 697 473 scale 0;
#X obj 40 13 inlet;
#X obj 40 414 outlet;
#X obj 248 324 s \$0-scale-min;
#X obj 329 290 s \$0-scale-max;
#X obj 248 208 r \$0-scale;
#X obj 450 212 swap, f 6;
#X obj 450 236 -, f 6;
#X obj 450 145 unpack;
#X obj 107 222 &&;
#X obj 107 173 >= 0;
#X obj 125 195 < 1e+21;
#X obj 237 108 -;
#X obj 237 132 outlet;
#X obj 450 263 s \$0-array-size;
#X obj 418 56 r \$0-zoom;
#X obj 418 86 t b l;
#X obj 418 110 s \$0-trigger;
#X obj 40 37 unpack f f;
#X obj 107 68 t f f, f 19;
#X obj 107 92 t f f;
#X obj 465 182 s \$0-zoom-min;
#X obj 255 78 r \$0-zoom-min;
#X obj 564 182 s \$0-zoom-max;
#X obj 171 166 r \$0-zoom-max;
#X obj 132 142 r \$0-zoom-min;
#X obj 40 252 spigot 1, f 10;
#X obj 40 348 clip, f 13;
#X obj 84 278 r \$0-scale-min;
#X obj 128 311 r \$0-scale-max;
#X obj 248 262 unpack f f, f 12;
#X obj 248 234 t b l;
#X obj 235 389 s \$0-trigger;
#X connect 0 0 17 0;
#X connect 4 0 30 0;
#X connect 5 0 6 0;
#X connect 5 1 6 1;
#X connect 6 0 13 0;
#X connect 7 0 5 0;
#X connect 7 0 20 0;
#X connect 7 1 5 1;
#X connect 7 1 22 0;
#X connect 8 0 25 1;
#X connect 9 0 8 0;
#X connect 10 0 8 1;
#X connect 11 0 12 0;
#X connect 14 0 15 0;
#X connect 15 0 16 0;
#X connect 15 1 7 0;
#X connect 17 0 25 0;
#X connect 17 1 18 0;
#X connect 18 0 19 0;
#X connect 18 1 11 0;
#X connect 19 0 9 0;
#X connect 19 1 10 0;
#X connect 21 0 11 1;
#X connect 23 0 10 1;
#X connect 24 0 9 1;
#X connect 25 0 26 0;
#X connect 26 0 1 0;
#X connect 27 0 26 1;
#X connect 28 0 26 2;
#X connect 29 0 2 0;
#X connect 29 1 3 0;
#X connect 30 0 31 0;
#X connect 30 1 29 0;
#X restore 211 306 pd scale;
#X f 12;
#X obj 197 138 s \$0-array;
#X obj 375 307 r \$0-array;
#X obj 64 339 s \$0-zoom;
#X obj 257 242 r \$0-trigger;
#X obj 561 463 r \$0-array;
#X obj 494 439 r \$0-array-size;
#X msg 144 545 bounds \$1 \$2 \$3 \$4;
#X obj 143 595 s;
#X obj 161 568 r \$0-array;
#X obj 144 521 pack 0 f f f, f 14;
#X obj 144 452 t b b f;
#X obj 271 465 r \$0-array;
#X obj 144 398 unpack f f;
#X obj 494 493 array size;
#X obj 211 337 array set, f 24;
#X obj 210 86 loadbang;
#X obj 210 110 symbol \$2;
#X obj 207 494 array size;
#X obj 144 422 swap, f 10;
#X obj 143 369 list split 2;
#X obj 64 146 route zoom;
#X obj 64 241 route bin value;
#X msg 115 268 \$3 \$4 \$1 \$2;
#X msg 64 313 \$3 \$4;
#X obj 64 61 route list id send, f 29;
#X obj 136 332 t l l;
#X obj 45 427 s \$0-scale;
#X connect 0 1 5 0;
#X connect 1 0 31 0;
#X connect 2 0 27 0;
#X connect 3 1 0 0;
#X connect 4 0 2 1;
#X connect 5 0 6 0;
#X connect 6 0 21 0;
#X connect 6 1 21 1;
#X connect 8 0 21 2;
#X connect 10 0 5 1;
#X connect 11 0 20 1;
#X connect 12 0 20 0;
#X connect 13 0 14 0;
#X connect 15 0 14 1;
#X connect 16 0 13 0;
#X connect 17 0 16 0;
#X connect 17 1 24 0;
#X connect 17 2 16 1;
#X connect 18 0 24 1;
#X connect 19 0 25 0;
#X connect 19 1 25 1;
#X connect 22 0 23 0;
#X connect 23 0 7 0;
#X connect 24 0 16 2;
#X connect 25 0 17 0;
#X connect 25 1 16 3;
#X connect 26 0 19 0;
#X connect 27 0 28 0;
#X connect 27 1 3 0;
#X connect 28 0 30 0;
#X connect 28 1 29 0;
#X connect 29 0 32 0;
#X connect 30 0 9 0;
#X connect 31 0 2 0;
#X connect 31 1 4 0;
#X connect 31 2 7 0;
#X connect 32 0 33 0;
#X connect 32 1 26 0;
